#N canvas -7 0 1366 685 12;
#X obj 239 350 osc~;
#X obj 294 355 osc~;
#X obj 364 352 osc~;
#X obj 302 311 *~ 2;
#X obj 367 303 *~ 3;
#X obj 296 392 *~ 0.66;
#X obj 379 390 *~ 0.5;
#X obj 424 349 osc~;
#X obj 427 300 *~ 4;
#X obj 439 390 *~ 0.33;
#X obj 500 350 osc~;
#X obj 574 351 osc~;
#X obj 634 348 osc~;
#X obj 503 298 *~ 5;
#X obj 577 302 *~ 6;
#X obj 637 299 *~ 7;
#X obj 506 391 *~ 0.25;
#X obj 589 389 *~ 0.2;
#X obj 649 389 *~ 0.17;
#X obj 244 308 *~ 1;
#X obj 249 397 *~ 1;
#X obj 429 71 notein;
#X obj 446 611 dac~;
#X text 328 122 U U' R R' F F' D D' L L' B B';
#X msg 245 189 66;
#X msg 279 190 67;
#X msg 313 190 69;
#X msg 348 190 71;
#X msg 382 190 72;
#X msg 416 190 74;
#X msg 450 190 76;
#X msg 485 190 78;
#X msg 519 190 79;
#X msg 554 190 81;
#X msg 623 190 84;
#X obj 289 140 select 60 61 62 63 64 65 66 67 68 69 70 71;
#X obj 433 265 mtof;
#X floatatom 433 232 5 0 0 0 - - - 0;
#X obj 434 511 *~;
#X msg 590 190 0;
#X floatatom 845 491 5 0 1 0 - - - 0;
#X floatatom 652 162 5 0 0 0 - - - 0;
#X obj 934 308 bng 19 100 20 0 empty empty empty 0 -10 0 12 #ffffff #000000 #000000;
#X obj 446 566 *~;
#X obj 847 451 line;
#X msg 852 353 1 10;
#X obj 931 361 delay 10;
#X floatatom 502 487 5 0 1 0 - - - 0;
#X obj 1041 359 delay 1010;
#X msg 926 411 0.3 1000;
#X msg 1040 416 0 5000;
#X obj 613 449 loadbang;
#X msg 620 485 0.2;
#X text 533 469 Volume;
#X text 199 62 Since you don't have the cube \, input messages to make sound, f 18;
#X msg 200 125 60;
#X text 111 175 Notes were rearranged to make playing easier, f 18;
#X text 1004 313 Envelope;
#X connect 0 0 20 0;
#X connect 1 0 5 0;
#X connect 2 0 6 0;
#X connect 3 0 1 0;
#X connect 4 0 2 0;
#X connect 5 0 38 0;
#X connect 6 0 38 0;
#X connect 7 0 9 0;
#X connect 8 0 7 0;
#X connect 9 0 38 0;
#X connect 10 0 16 0;
#X connect 11 0 17 0;
#X connect 12 0 18 0;
#X connect 13 0 10 0;
#X connect 14 0 11 0;
#X connect 15 0 12 0;
#X connect 16 0 38 0;
#X connect 17 0 38 0;
#X connect 18 0 38 0;
#X connect 19 0 0 0;
#X connect 20 0 38 0;
#X connect 21 0 35 0;
#X connect 24 0 37 0;
#X connect 24 0 42 0;
#X connect 25 0 37 0;
#X connect 25 0 42 0;
#X connect 26 0 37 0;
#X connect 26 0 42 0;
#X connect 27 0 37 0;
#X connect 27 0 42 0;
#X connect 28 0 37 0;
#X connect 28 0 42 0;
#X connect 29 0 37 0;
#X connect 29 0 42 0;
#X connect 30 0 37 0;
#X connect 30 0 42 0;
#X connect 31 0 37 0;
#X connect 31 0 42 0;
#X connect 32 0 37 0;
#X connect 32 0 42 0;
#X connect 33 0 37 0;
#X connect 33 0 42 0;
#X connect 34 0 37 0;
#X connect 34 0 42 0;
#X connect 35 0 26 0;
#X connect 35 1 28 0;
#X connect 35 2 25 0;
#X connect 35 3 27 0;
#X connect 35 4 24 0;
#X connect 35 5 33 0;
#X connect 35 6 31 0;
#X connect 35 7 32 0;
#X connect 35 8 30 0;
#X connect 35 9 29 0;
#X connect 35 10 39 0;
#X connect 35 11 34 0;
#X connect 35 12 41 0;
#X connect 36 0 8 0;
#X connect 36 0 19 0;
#X connect 36 0 3 0;
#X connect 36 0 4 0;
#X connect 36 0 13 0;
#X connect 36 0 14 0;
#X connect 36 0 15 0;
#X connect 37 0 36 0;
#X connect 38 0 43 0;
#X connect 39 0 37 0;
#X connect 39 0 42 0;
#X connect 40 0 43 1;
#X connect 42 0 45 0;
#X connect 42 0 46 0;
#X connect 42 0 48 0;
#X connect 43 0 22 0;
#X connect 43 0 22 1;
#X connect 44 0 40 0;
#X connect 45 0 44 0;
#X connect 46 0 49 0;
#X connect 47 0 38 1;
#X connect 48 0 50 0;
#X connect 49 0 44 0;
#X connect 50 0 44 0;
#X connect 51 0 52 0;
#X connect 52 0 47 0;
#X connect 55 0 35 0;
