#N canvas -7 0 1366 685 12;
#X obj 199 83 notein;
#X obj 440 686 dac~;
#X obj 317 634 *~;
#X obj 210 587 readsf~ 2;
#X obj 546 635 *~;
#X msg 138 438 1, f 2;
#X obj 247 564 readsf~ 2;
#X obj 320 495 readsf~ 2;
#X obj 271 541 readsf~ 2;
#X obj 296 518 readsf~ 2;
#X obj 344 472 readsf~ 2;
#X obj 368 449 readsf~ 2;
#X obj 405 426 readsf~ 2;
#X obj 442 403 readsf~ 2;
#X obj 465 380 readsf~ 2;
#X msg 228 483 1, f 1;
#X msg 254 494 1, f 1;
#X msg 281 480 1, f 1;
#X msg 303 464 1, f 1;
#X msg 328 460 1, f 1;
#X msg 348 248 1, f 1;
#X msg 378 225 1, f 1;
#X msg 421 389 1, f 1;
#X msg 451 354 1, f 1;
#X floatatom 199 112 5 0 0 0 - - - 0;
#X floatatom 600 586 5 0 1 0 - - - 0;
#X obj 199 143 select 60 61 62 63 64 65 66 67 68 69 70 71 80 81;
#X msg 778 274 1;
#X msg 608 274 1;
#X obj 585 306 readsf~ 2;
#X obj 756 308 readsf~ 2;
#X msg 585 239 open Cheer.wav;
#X msg 755 239 open RainbowMusic.wav;
#X msg 199 438 open Sounds/OpenHat.wav;
#X msg 224 415 open Sounds/ClosedHat.wav;
#X msg 247 392 open Sounds/Kick.wav;
#X msg 270 366 open Sounds/OWAOWA.wav;
#X msg 295 344 open Sounds/Crash.wav;
#X msg 320 320 open Sounds/Ride.wav;
#X msg 344 296 open Sounds/HighTom.wav;
#X msg 368 272 open Sounds/LowTom.wav;
#X msg 393 249 open Sounds/Rim.wav;
#X msg 418 226 open Sounds/Snare.wav;
#X msg 441 203 open Sounds/Cowbell.wav;
#X msg 465 179 open Sounds/Bongo.wav;
#X obj 667 533 loadbang;
#X msg 659 562 0.2;
#X text 25 23 The Rubik's Cube / Python code generates MIDI notes and sends them to the notein object., f 25;
#X msg 281 98 60;
#X text 604 559 Volume;
#X text 320 78 Since you don't have the cube \, just input messages to make sound, f 23;
#X connect 0 0 24 0;
#X connect 2 0 1 0;
#X connect 3 0 2 0;
#X connect 3 1 4 0;
#X connect 4 0 1 1;
#X connect 5 0 3 0;
#X connect 6 0 2 0;
#X connect 6 1 4 0;
#X connect 7 0 2 0;
#X connect 7 1 4 0;
#X connect 8 0 2 0;
#X connect 8 1 4 0;
#X connect 9 0 2 0;
#X connect 9 1 4 0;
#X connect 10 0 2 0;
#X connect 10 1 4 0;
#X connect 11 0 2 0;
#X connect 11 1 4 0;
#X connect 12 0 2 0;
#X connect 12 1 4 0;
#X connect 13 0 2 0;
#X connect 13 1 4 0;
#X connect 14 0 2 0;
#X connect 14 1 4 0;
#X connect 15 0 6 0;
#X connect 16 0 8 0;
#X connect 17 0 9 0;
#X connect 18 0 7 0;
#X connect 19 0 10 0;
#X connect 20 0 11 0;
#X connect 21 0 12 0;
#X connect 22 0 13 0;
#X connect 23 0 14 0;
#X connect 24 0 26 0;
#X connect 25 0 2 1;
#X connect 25 0 4 1;
#X connect 26 0 33 0;
#X connect 26 0 5 0;
#X connect 26 1 34 0;
#X connect 26 1 5 0;
#X connect 26 2 35 0;
#X connect 26 2 15 0;
#X connect 26 3 36 0;
#X connect 26 3 16 0;
#X connect 26 4 37 0;
#X connect 26 4 17 0;
#X connect 26 5 38 0;
#X connect 26 5 18 0;
#X connect 26 6 39 0;
#X connect 26 6 19 0;
#X connect 26 7 40 0;
#X connect 26 7 20 0;
#X connect 26 8 41 0;
#X connect 26 8 21 0;
#X connect 26 9 42 0;
#X connect 26 9 21 0;
#X connect 26 10 43 0;
#X connect 26 10 22 0;
#X connect 26 11 44 0;
#X connect 26 11 23 0;
#X connect 26 12 31 0;
#X connect 26 12 28 0;
#X connect 26 13 32 0;
#X connect 26 13 27 0;
#X connect 27 0 30 0;
#X connect 28 0 29 0;
#X connect 29 0 2 0;
#X connect 29 1 4 0;
#X connect 30 0 2 0;
#X connect 30 1 4 0;
#X connect 31 0 29 0;
#X connect 32 0 30 0;
#X connect 33 0 3 0;
#X connect 34 0 3 0;
#X connect 35 0 6 0;
#X connect 36 0 8 0;
#X connect 37 0 9 0;
#X connect 38 0 7 0;
#X connect 39 0 10 0;
#X connect 40 0 11 0;
#X connect 41 0 12 0;
#X connect 42 0 12 0;
#X connect 43 0 13 0;
#X connect 44 0 14 0;
#X connect 45 0 46 0;
#X connect 46 0 25 0;
#X connect 48 0 26 0;
